<svg width="36" height="37" viewBox="0 0 36 37" fill="none" xmlns="http://www.w3.org/2000/svg">
<path d="M18 2.49609C9.30234 2.49609 2.25 9.54844 2.25 18.2461C2.25 26.9437 9.30234 33.9961 18 33.9961C26.6977 33.9961 33.75 26.9437 33.75 18.2461C33.75 9.54844 26.6977 2.49609 18 2.49609ZM19.125 25.8398C19.125 25.9945 18.9984 26.1211 18.8438 26.1211H17.1562C17.0016 26.1211 16.875 25.9945 16.875 25.8398V16.2773C16.875 16.1227 17.0016 15.9961 17.1562 15.9961H18.8438C18.9984 15.9961 19.125 16.1227 19.125 16.2773V25.8398ZM18 13.7461C17.5584 13.7371 17.138 13.5553 16.8288 13.2398C16.5197 12.9244 16.3466 12.5003 16.3466 12.0586C16.3466 11.6169 16.5197 11.1928 16.8288 10.8773C17.138 10.5619 17.5584 10.3801 18 10.3711C18.4416 10.3801 18.8621 10.5619 19.1712 10.8773C19.4803 11.1928 19.6534 11.6169 19.6534 12.0586C19.6534 12.5003 19.4803 12.9244 19.1712 13.2398C18.8621 13.5553 18.4416 13.7371 18 13.7461Z" fill="#DF5532"/>
</svg>
