<svg width="67" height="62" viewBox="0 0 67 62" fill="none" xmlns="http://www.w3.org/2000/svg">
<g clip-path="url(#clip0_74_574)">
<path fill-rule="evenodd" clip-rule="evenodd" d="M19.7104 64.7971L66.309 61.5386L66.6432 66.318L20.0447 69.5765L19.7104 64.7971Z" fill="#5EA7FF"/>
<path fill-rule="evenodd" clip-rule="evenodd" d="M62.808 62.9842C72.7064 62.2921 80.1695 53.7068 79.4773 43.8084C78.7852 33.9101 70.1999 26.447 60.3015 27.1391C57.7079 27.3205 55.2815 28.0438 53.1252 29.1906C51.4866 20.3249 43.4151 13.9118 34.2074 14.5557C24.309 15.2478 16.8459 23.8331 17.5381 33.7315C17.624 34.9606 17.8317 36.1522 18.1485 37.2953C18.0288 37.3007 17.9089 37.3076 17.7887 37.316C9.87008 37.8697 3.89961 44.738 4.45333 52.6566C5.00706 60.5753 11.8753 66.5458 19.794 65.992L62.808 62.9842Z" fill="#F0F2FF"/>
<path d="M60.6357 31.9183C67.8945 31.4107 74.1904 36.8837 74.698 44.1425" stroke="white" stroke-width="2" stroke-linecap="round"/>
</g>
<path d="M55.8619 59.0071C55.9104 55.0353 59.1557 51.8384 63.1276 51.8384H63.176V30.0415C63.1518 30.0415 63.1518 30.0415 63.1276 30.0415C47.0948 30.0415 34.1135 42.9985 34.0651 59.0071H55.8619Z" fill="#F44336"/>
<path d="M55.8619 59.0071C55.9104 55.0353 59.1557 51.8384 63.1276 51.8384H63.176V33.6743C63.0791 33.6743 62.9823 33.6743 62.8854 33.6743C48.8627 33.6743 37.5041 45.0087 37.4557 59.0071H55.8619Z" fill="#FF9800"/>
<path d="M55.8619 59.0071C55.9104 55.0353 59.1557 51.8384 63.1276 51.8384H63.176V37.3071C63.1518 37.3071 63.1518 37.3071 63.1276 37.3071C51.1151 37.3071 41.3791 47.0188 41.3307 59.0071H55.8619Z" fill="#FFEB3B"/>
<path d="M55.8619 59.0071C55.9104 55.0353 59.1557 51.8384 63.1276 51.8384H63.176V40.9399C63.1518 40.9399 63.1518 40.9399 63.1276 40.9399C53.1252 40.9399 45.0119 49.029 44.9635 59.0071H55.8619Z" fill="#8BC34A"/>
<path d="M55.8619 59.0071C55.9104 55.0353 59.1557 51.8384 63.1276 51.8384H63.176V44.5728C63.1518 44.5728 63.1518 44.5728 63.1276 44.5728C55.1354 44.5728 48.6448 51.0149 48.5963 59.0071H55.8619Z" fill="#2196F3"/>
<path d="M55.8619 59.0071C55.9104 55.0353 59.1557 51.8384 63.1276 51.8384H63.176V48.2056C63.1518 48.2056 63.1518 48.2056 63.1276 48.2056C57.1455 48.2056 52.2776 53.0251 52.2291 59.0071H55.8619Z" fill="#673AB7"/>
<path opacity="0.2" d="M35.0338 59.0071C35.058 51.5478 37.9885 44.5243 43.2682 39.2446C48.5721 33.9407 55.6197 31.0103 63.1276 31.0103H63.176V30.0415C63.1518 30.0415 63.1518 30.0415 63.1276 30.0415C47.0948 30.0415 34.1135 42.9985 34.0651 59.0071H35.0338Z" fill="#424242"/>
<path opacity="0.2" d="M56.1042 59.0071C56.1526 55.1806 59.2768 52.0806 63.1034 52.0806H63.1518V51.1118C63.1276 51.1118 63.1276 51.1118 63.1034 51.1118C58.7198 51.1118 55.1839 54.6235 55.1112 59.0071H56.1042Z" fill="#424242"/>
<defs>
<clipPath id="clip0_74_574">
<rect width="76.6562" height="76.6562" fill="white" transform="translate(0 6.1416) rotate(-4)"/>
</clipPath>
</defs>
</svg>
