<svg width="82" height="70" viewBox="0 0 82 70" fill="none" xmlns="http://www.w3.org/2000/svg">
<g clip-path="url(#clip0_74_554)">
<path fill-rule="evenodd" clip-rule="evenodd" d="M19.7104 64.7971L66.309 61.5386L66.6432 66.318L20.0447 69.5765L19.7104 64.7971Z" fill="#5EA7FF"/>
<path fill-rule="evenodd" clip-rule="evenodd" d="M62.808 62.9842C72.7064 62.2921 80.1695 53.7068 79.4773 43.8084C78.7852 33.9101 70.1999 26.447 60.3015 27.1391C57.7079 27.3205 55.2815 28.0438 53.1252 29.1906C51.4866 20.3249 43.4151 13.9118 34.2074 14.5557C24.309 15.2478 16.8459 23.8331 17.5381 33.7315C17.624 34.9606 17.8317 36.1522 18.1485 37.2953C18.0288 37.3007 17.9089 37.3076 17.7887 37.316C9.87008 37.8697 3.89961 44.738 4.45333 52.6566C5.00706 60.5753 11.8753 66.5458 19.794 65.992L62.808 62.9842Z" fill="#F0F2FF"/>
<path d="M60.6357 31.9183C67.8945 31.4107 74.1904 36.8837 74.698 44.1425" stroke="white" stroke-width="2" stroke-linecap="round"/>
</g>
<path d="M34.4189 27.1875L25.6689 27.1875C25.1857 27.1875 24.7939 27.5793 24.7939 28.0625L24.7939 36.8125C24.7939 37.2957 25.1857 37.6875 25.6689 37.6875L34.4189 37.6875C34.9022 37.6875 35.2939 37.2957 35.2939 36.8125L35.2939 28.0625C35.2939 27.5793 34.9022 27.1875 34.4189 27.1875Z" fill="#ECECEC"/>
<path d="M34.4189 39.4375L25.6689 39.4375C25.1857 39.4375 24.7939 39.8293 24.7939 40.3125L24.7939 49.0625C24.7939 49.5457 25.1857 49.9375 25.6689 49.9375L34.4189 49.9375C34.9022 49.9375 35.2939 49.5457 35.2939 49.0625L35.2939 40.3125C35.2939 39.8293 34.9022 39.4375 34.4189 39.4375Z" fill="#ECECEC"/>
<path d="M46.6689 27.1875L37.9189 27.1875C37.4357 27.1875 37.0439 27.5793 37.0439 28.0625L37.0439 36.8125C37.0439 37.2957 37.4357 37.6875 37.9189 37.6875L46.6689 37.6875C47.1522 37.6875 47.5439 37.2957 47.5439 36.8125L47.5439 28.0625C47.5439 27.5793 47.1522 27.1875 46.6689 27.1875Z" fill="#ECECEC"/>
<path d="M46.6689 39.4375L37.9189 39.4375C37.4357 39.4375 37.0439 39.8293 37.0439 40.3125L37.0439 49.0625C37.0439 49.5457 37.4357 49.9375 37.9189 49.9375L46.6689 49.9375C47.1522 49.9375 47.5439 49.5457 47.5439 49.0625L47.5439 40.3125C47.5439 39.8293 47.1522 39.4375 46.6689 39.4375Z" fill="#ECECEC"/>
<path d="M30.0439 35.0625C31.4937 35.0625 32.6689 33.8872 32.6689 32.4375C32.6689 30.9878 31.4937 29.8125 30.0439 29.8125C28.5942 29.8125 27.4189 30.9878 27.4189 32.4375C27.4189 33.8872 28.5942 35.0625 30.0439 35.0625Z" fill="#ED9111"/>
<path fill-rule="evenodd" clip-rule="evenodd" d="M42.2939 29.344L45.3875 32.4376L42.2939 35.5312L39.2004 32.4376L42.2939 29.344Z" fill="#22BA8E"/>
<path fill-rule="evenodd" clip-rule="evenodd" d="M30.044 46.4375L27.9868 47.519L28.3797 45.2283L26.7155 43.606L29.0154 43.2717L30.044 41.1875L31.0725 43.2717L33.3725 43.606L31.7082 45.2283L32.1011 47.519L30.044 46.4375Z" fill="#E43535"/>
<path fill-rule="evenodd" clip-rule="evenodd" d="M42.2939 42.0625L45.3564 47.3125L39.2314 47.3125L42.2939 42.0625Z" fill="#5B68C0"/>
<defs>
<clipPath id="clip0_74_554">
<rect width="76.6562" height="76.6562" fill="white" transform="translate(0 6.1416) rotate(-4)"/>
</clipPath>
</defs>
</svg>
