<svg width="82" height="60" viewBox="0 0 82 60" fill="none" xmlns="http://www.w3.org/2000/svg">
<g clip-path="url(#clip0_74_593)">
<path fill-rule="evenodd" clip-rule="evenodd" d="M62.808 62.19C72.7064 61.4979 80.1695 52.9126 79.4773 43.0142C78.7852 33.1159 70.1999 25.6528 60.3015 26.345C57.7079 26.5263 55.2815 27.2496 53.1252 28.3964C51.4866 19.5307 43.4151 13.1176 34.2074 13.7615C24.309 14.4537 16.8459 23.039 17.5381 32.9373C17.624 34.1664 17.8317 35.358 18.1485 36.5011C18.0288 36.5065 17.9089 36.5134 17.7887 36.5218C9.87008 37.0755 3.89961 43.9438 4.45333 51.8624C5.00706 59.7811 11.8753 65.7516 19.794 65.1979L62.808 62.19Z" fill="#F0F2FF"/>
<path d="M60.6357 31.1241C67.8945 30.6166 74.1904 36.0895 74.698 43.3483" stroke="white" stroke-width="2" stroke-linecap="round"/>
</g>
<path fill-rule="evenodd" clip-rule="evenodd" d="M33.4787 35.6657C33.4787 35.9079 33.4061 36.1234 33.2608 36.3123C33.1154 36.5012 32.9314 36.5908 32.7086 36.5812C32.5536 36.5715 32.1758 36.3656 31.5751 35.9636C30.9745 35.5615 30.6694 35.283 30.6597 35.128C30.6597 35.0602 30.6742 34.9706 30.7033 34.8592C30.7323 34.7478 30.7469 34.663 30.7469 34.6049V28.5018C30.7469 28.279 30.5289 28.1191 30.0929 28.0222C29.6086 27.906 29.3325 27.7462 29.2647 27.5427C29.2259 27.4362 29.2065 27.3344 29.2065 27.2376C29.2065 27.0244 29.3131 26.7726 29.5262 26.4819C29.8169 26.0847 29.9912 25.828 30.0494 25.7118L30.3981 24.5783C30.5628 24.1521 30.8486 23.939 31.2554 23.939C31.672 23.939 32.0886 24.0649 32.5051 24.3168C32.9701 24.5977 33.2026 24.9174 33.2026 25.2758V34.9101C33.2026 35.0069 33.2487 35.1304 33.3407 35.2806C33.4327 35.4308 33.4787 35.5591 33.4787 35.6657Z" fill="#7180F1"/>
<path fill-rule="evenodd" clip-rule="evenodd" d="M44.3771 39.3905C44.4062 39.6714 44.227 39.87 43.8395 39.9863C43.7135 39.9669 43.5295 39.9717 43.2873 40.0008C43.1129 40.0008 42.5656 40.1413 41.6452 40.4222C40.6087 40.7128 39.8385 40.9841 39.3348 41.2359C39.1992 41.3038 39.0756 41.3934 38.9642 41.5048C38.8528 41.6162 38.7826 41.6719 38.7535 41.6719C38.6082 41.6913 38.1868 41.4394 37.4893 40.9163C37.2956 40.8 37.1018 40.6741 36.9081 40.5384C36.7143 40.4028 36.6126 40.243 36.6029 40.0589C36.6029 39.9911 37.0243 39.3566 37.8671 38.1553C38.9037 36.6828 39.7077 35.4525 40.2793 34.4644C41.1609 32.9047 41.6356 31.6695 41.7034 30.7589C40.9477 31.0689 40.1921 31.7664 39.4365 32.8514C39.3784 32.8999 39.342 32.9895 39.3275 33.1202C39.313 33.251 39.2863 33.3406 39.2476 33.3891C39.1507 33.515 39.0103 33.578 38.8262 33.578C38.5065 33.578 38.119 33.423 37.6637 33.113L37.0824 32.7933C36.8499 32.6674 36.7288 32.5559 36.7192 32.4591C36.6998 32.2363 36.942 31.8052 37.4457 31.1658C37.9882 30.4877 38.5888 29.9113 39.2476 29.4366C40.0323 28.8553 40.7298 28.5647 41.3401 28.5647C41.5726 28.5647 41.793 28.6398 42.0013 28.7899C42.2095 28.9401 42.4106 29.0927 42.6043 29.2477C43.389 29.7902 43.8879 30.3036 44.101 30.788C44.1398 30.8849 44.1592 31.0108 44.1592 31.1658C44.1592 31.8439 43.8007 32.9483 43.0838 34.4789C42.4057 35.9224 41.6792 37.1769 40.9042 38.2425C41.2045 38.1456 41.621 38.0003 42.1538 37.8066C42.212 37.7775 42.3137 37.7097 42.459 37.6031C42.5559 37.5353 42.6479 37.5063 42.7351 37.5159C42.9676 37.545 43.2945 37.8187 43.716 38.337C44.1374 38.8552 44.3577 39.2064 44.3771 39.3905Z" fill="#5EA7FF"/>
<path fill-rule="evenodd" clip-rule="evenodd" d="M53.9388 39.1291C53.871 39.8072 53.4302 40.6209 52.6164 41.5703C53.5949 42.3938 54.0841 43.3334 54.0841 44.3894C54.0841 45.4744 53.6046 46.5158 52.6455 47.5136C51.7736 48.4049 50.955 48.8747 50.1897 48.9231C49.8797 48.9425 49.2452 48.5647 48.2861 47.7897C47.3561 47.0341 46.8863 46.5594 46.8766 46.3656C46.8669 46.1428 46.9735 45.9394 47.1963 45.7553C47.4191 45.5713 47.6322 45.4841 47.8356 45.4938C47.9713 45.5034 48.1892 45.6827 48.4896 46.0314C48.7899 46.3802 49.066 46.5788 49.3178 46.6272C49.715 46.7144 50.2527 46.3124 50.9308 45.4211C51.5799 44.5783 51.9044 43.9534 51.9044 43.5466C51.9044 43.3722 51.793 43.285 51.5702 43.285C51.4152 43.285 51.2311 43.3625 51.018 43.5175C50.863 43.6241 50.7104 43.7331 50.5603 43.8445C50.4101 43.9559 50.2624 44.0019 50.1171 43.9825C49.9524 43.9631 49.6884 43.8081 49.3251 43.5175C48.9618 43.2269 48.6639 42.9266 48.4314 42.6166C48.383 42.5488 48.3588 42.4713 48.3588 42.3841C48.3588 42.1128 48.4896 41.9191 48.7511 41.8028C49.1192 41.6381 49.5649 41.2894 50.088 40.7566C50.8436 39.9719 51.3135 39.1388 51.4975 38.2572C51.11 38.3444 50.6789 38.7052 50.2042 39.3398C49.7295 39.9743 49.4341 40.3109 49.3178 40.3497C49.1338 40.4175 48.7826 40.3013 48.2643 40.0009C47.746 39.7006 47.4094 39.4342 47.2544 39.2017C47.2253 39.163 47.2108 39.1145 47.2108 39.0564C47.2108 38.9014 47.3416 38.6786 47.6031 38.388C48.4072 37.487 48.9594 36.9106 49.2597 36.6588C49.8894 36.1259 50.49 35.8741 51.0616 35.9031C51.701 35.9419 52.3573 36.3342 53.0306 37.0802C53.7039 37.8261 54.0066 38.5091 53.9388 39.1291Z" fill="#56E287"/>
<defs>
<clipPath id="clip0_74_593">
<rect width="76.6562" height="76.6562" fill="white" transform="translate(0 5.34741) rotate(-4)"/>
</clipPath>
</defs>
</svg>
