<svg width="36" height="37" viewBox="0 0 36 37" fill="none" xmlns="http://www.w3.org/2000/svg">
<path d="M18.0001 3.84619C18.1927 3.84619 18.3853 3.85339 18.5761 3.86959C17.2846 4.78351 16.2313 5.994 15.5046 7.3994C14.778 8.80479 14.3992 10.364 14.4001 11.9462C14.4001 14.3168 15.2335 16.493 16.6231 18.1976L15.3001 19.5188V22.5662C15.3001 22.8526 15.1863 23.1273 14.9838 23.3299C14.7812 23.5324 14.5065 23.6462 14.2201 23.6462H10.8001V26.1662C10.8001 26.4526 10.6863 26.7273 10.4838 26.9299C10.2812 27.1324 10.0065 27.2462 9.7201 27.2462H4.6801C4.39366 27.2462 4.11896 27.1324 3.91642 26.9299C3.71388 26.7273 3.6001 26.4526 3.6001 26.1662V21.02C3.60035 20.7337 3.7143 20.4591 3.9169 20.2568L11.0917 13.082C10.7751 12.008 10.7134 10.8749 10.9114 9.7729C11.1094 8.67086 11.5617 7.63018 12.2324 6.73357C12.903 5.83695 13.7736 5.10911 14.7748 4.60788C15.7761 4.10665 16.8804 3.84585 18.0001 3.84619Z" fill="#DF5532"/>
<path d="M16.2002 11.9461C16.2003 10.5467 16.5629 9.17124 17.2528 7.95372C17.9426 6.7362 18.9361 5.71816 20.1364 4.99882C21.3367 4.27948 22.7029 3.88338 24.1019 3.84911C25.5008 3.81484 26.8848 4.14358 28.1188 4.8033C29.3529 5.46301 30.3951 6.43119 31.1437 7.61347C31.8923 8.79575 32.3218 10.1518 32.3905 11.5495C32.4591 12.9472 32.1644 14.3388 31.5352 15.5887C30.906 16.8386 29.9637 17.9042 28.8002 18.6817V22.3717L30.2096 23.7829C30.4118 23.9854 30.5254 24.2599 30.5254 24.5461C30.5254 24.8323 30.4118 25.1068 30.2096 25.3093L28.2728 27.2461L30.1952 29.1667C30.3026 29.2741 30.3861 29.4031 30.4403 29.545C30.4945 29.687 30.5181 29.8388 30.5096 29.9905C30.5011 30.1422 30.4607 30.2904 30.391 30.4254C30.3213 30.5605 30.2239 30.6792 30.1052 30.7741L25.8752 34.1581C25.6836 34.3114 25.4456 34.395 25.2002 34.395C24.9548 34.395 24.7167 34.3114 24.5252 34.1581L20.2052 30.7021C20.0789 30.6009 19.9769 30.4728 19.9068 30.3269C19.8367 30.1811 19.8003 30.0214 19.8002 29.8597V18.6817C18.6921 17.942 17.7837 16.9402 17.1557 15.7652C16.5277 14.5902 16.1995 13.2784 16.2002 11.9461ZM25.6502 10.1461C25.6502 9.78802 25.508 9.44464 25.2548 9.19147C25.0016 8.93829 24.6582 8.79606 24.3002 8.79606C23.9422 8.79606 23.5988 8.93829 23.3456 9.19147C23.0924 9.44464 22.9502 9.78802 22.9502 10.1461C22.9502 10.5041 23.0924 10.8475 23.3456 11.1007C23.5988 11.3538 23.9422 11.4961 24.3002 11.4961C24.6582 11.4961 25.0016 11.3538 25.2548 11.1007C25.508 10.8475 25.6502 10.5041 25.6502 10.1461Z" fill="#DF5532"/>
</svg>
