<svg width="16" height="24" viewBox="0 0 16 24" fill="none" xmlns="http://www.w3.org/2000/svg">
<path fill-rule="evenodd" clip-rule="evenodd" d="M4.64592 2.62072C4.69236 2.55166 4.74754 2.49686 4.80828 2.45947C4.86903 2.42208 4.93415 2.40283 4.99992 2.40283C5.06568 2.40283 5.13081 2.42208 5.19155 2.45947C5.2523 2.49686 5.30747 2.55166 5.35392 2.62072L11.3539 11.5207C11.4005 11.5896 11.4374 11.6715 11.4626 11.7616C11.4878 11.8517 11.5008 11.9483 11.5008 12.0458C11.5008 12.1434 11.4878 12.24 11.4626 12.3301C11.4374 12.4202 11.4005 12.502 11.3539 12.5709L5.35392 21.4709C5.26003 21.6102 5.13269 21.6884 4.99992 21.6884C4.86714 21.6884 4.7398 21.6102 4.64592 21.4709C4.55203 21.3317 4.49929 21.1428 4.49929 20.9458C4.49929 20.7489 4.55203 20.56 4.64592 20.4207L10.2929 12.0458L4.64592 3.67092C4.59935 3.60203 4.56241 3.52019 4.5372 3.43008C4.512 3.33998 4.49902 3.24338 4.49902 3.14582C4.49902 3.04827 4.512 2.95167 4.5372 2.86157C4.56241 2.77146 4.59935 2.68962 4.64592 2.62072Z" fill="#A0A0A0"/>
</svg>
