<svg width="36" height="37" viewBox="0 0 36 37" fill="none" xmlns="http://www.w3.org/2000/svg">
<path d="M29.9999 16.7446H32.9999C32.9999 9.04959 27.1904 3.24609 19.4849 3.24609V6.24609C25.5779 6.24609 29.9999 10.6606 29.9999 16.7446Z" fill="#DF5532"/>
<path d="M19.4999 12.246C22.6544 12.246 23.9999 13.5915 23.9999 16.746H26.9999C26.9999 11.9085 24.3374 9.24596 19.4999 9.24596V12.246ZM24.6329 20.4105C24.3447 20.1485 23.966 20.0088 23.5766 20.0208C23.1873 20.0328 22.8179 20.1957 22.5464 20.475L18.9569 24.1665C18.0929 24.0015 16.3559 23.46 14.5679 21.6765C12.7799 19.887 12.2384 18.1455 12.0779 17.2875L15.7664 13.6965C16.0461 13.4252 16.2091 13.0557 16.2212 12.6663C16.2332 12.2769 16.0933 11.898 15.8309 11.61L10.2884 5.51546C10.026 5.2265 9.66125 5.05122 9.27166 5.02685C8.88207 5.00249 8.49833 5.13095 8.20193 5.38496L4.94693 8.17646C4.6876 8.43674 4.53281 8.78314 4.51193 9.14996C4.48943 9.52496 4.06043 18.408 10.9484 25.299C16.9574 31.3065 24.4844 31.746 26.5574 31.746C26.8604 31.746 27.0464 31.737 27.0959 31.734C27.4627 31.7134 27.8089 31.558 28.0679 31.2975L30.8579 28.041C31.1121 27.7448 31.2409 27.3611 31.2168 26.9715C31.1927 26.582 31.0177 26.2171 30.7289 25.9545L24.6329 20.4105Z" fill="#DF5532"/>
</svg>
