<svg width="17" height="16" viewBox="0 0 17 16" fill="none" xmlns="http://www.w3.org/2000/svg">
<path fill-rule="evenodd" clip-rule="evenodd" d="M15.8319 0.657534C15.387 0.236817 14.7859 0.000519008 14.1592 0C13.6164 0.00168287 13.0904 0.180369 12.6688 0.506377L5.24069 6.26547L5.12178 6.37884C4.08646 7.35741 3.85679 8.87165 4.55892 10.0897C4.27086 10.006 3.97212 9.96019 3.67103 9.95371C1.91972 9.95371 0.5 11.3072 0.5 12.9769V14.8663C0.5 15.4924 1.03239 16 1.68914 16H3.67103C4.77186 15.9942 5.7908 15.4446 6.36287 14.5479C6.93495 13.6513 6.9783 12.5359 6.47739 11.6013C6.79424 11.7033 7.12601 11.7569 7.46041 11.76C8.33843 11.7657 9.18166 11.4332 9.79905 10.838L9.87832 10.7548L15.9588 3.67312C16.7263 2.78319 16.6717 1.48602 15.8319 0.657534ZM3.70274 14.8663H1.72085V12.9769C1.72085 11.9333 2.60817 11.0874 3.70274 11.0874C4.79731 11.0874 5.68464 11.9333 5.68464 12.9769C5.68464 14.0204 4.79731 14.8663 3.70274 14.8663ZM8.99044 10.0444L15.0709 2.95513C15.4436 2.51004 15.406 1.86902 14.9836 1.4663C14.5612 1.06358 13.8888 1.02775 13.422 1.38309L5.99381 7.17997C5.16413 7.96888 5.16235 9.24963 5.98985 10.0406C6.81734 10.8316 8.16075 10.8333 8.99044 10.0444Z" fill="black"/>
<path d="M9.24412 6.13699L6.86585 8.40435C6.634 8.62565 6.634 8.98417 6.86585 9.20548C7.09798 9.42651 7.47404 9.42651 7.70617 9.20548L10.0844 6.93812C10.2435 6.79681 10.309 6.58399 10.2552 6.38315C10.2014 6.18232 10.0369 6.02549 9.82623 5.9742C9.61557 5.92291 9.39234 5.98534 9.24412 6.13699Z" fill="black"/>
</svg>
