<svg width="36" height="37" viewBox="0 0 36 37" fill="none" xmlns="http://www.w3.org/2000/svg">
<path d="M24.7499 18.2461C26.8199 18.2461 28.4849 16.5661 28.4849 14.4961C28.4849 12.4261 26.8199 10.7461 24.7499 10.7461C23.7553 10.7461 22.8015 11.1412 22.0983 11.8444C21.395 12.5477 20.9999 13.5015 20.9999 14.4961C20.9999 15.4907 21.395 16.4445 22.0983 17.1477C22.8015 17.851 23.7553 18.2461 24.7499 18.2461ZM13.5 16.7461C15.9899 16.7461 17.9849 14.7361 17.9849 12.2461C17.9849 9.75609 15.9899 7.74609 13.5 7.74609C11.01 7.74609 8.99997 9.75609 8.99997 12.2461C8.99997 14.7361 11.01 16.7461 13.5 16.7461ZM24.7499 21.2461C22.0049 21.2461 16.4999 22.6261 16.4999 25.3711V28.7461H32.9999V25.3711C32.9999 22.6261 27.4949 21.2461 24.7499 21.2461ZM13.5 19.7461C10.005 19.7461 3 21.5011 3 24.9961V28.7461H13.5V25.3711C13.5 24.0961 13.995 21.8611 17.0549 20.1661C15.7499 19.8961 14.4899 19.7461 13.5 19.7461Z" fill="#DF5532"/>
</svg>
