<svg width="36" height="37" viewBox="0 0 36 37" fill="none" xmlns="http://www.w3.org/2000/svg">
<path d="M18 3.24609C9.729 3.24609 3 9.97509 3 18.2461C3 26.5171 9.729 33.2461 18 33.2461C26.271 33.2461 33 26.5171 33 18.2461C33 9.97509 26.271 3.24609 18 3.24609ZM19.5 27.2461H16.5V24.2461H19.5V27.2461ZM20.964 19.9186C20.67 20.1556 20.3865 20.3821 20.1615 20.6071C19.5495 21.2176 19.5015 21.7726 19.5 21.7966V21.9961H16.5V21.7456C16.5 21.5686 16.5435 19.9801 18.039 18.4846C18.3315 18.1921 18.6945 17.8951 19.0755 17.5861C20.1765 16.6936 20.8995 16.0426 20.8995 15.1456C20.8821 14.3878 20.5688 13.667 20.0266 13.1373C19.4844 12.6076 18.7565 12.3111 17.9985 12.3113C17.2405 12.3115 16.5128 12.6083 15.9709 13.1383C15.429 13.6683 15.116 14.3893 15.099 15.1471H12.099C12.099 11.8936 14.7465 9.24609 18 9.24609C21.2535 9.24609 23.901 11.8936 23.901 15.1471C23.901 17.5426 22.1325 18.9721 20.964 19.9186Z" fill="#DF5532"/>
</svg>
