<svg width="16" height="16" viewBox="0 0 16 16" fill="none" xmlns="http://www.w3.org/2000/svg">
<path d="M15.5112 6.27177C14.9096 5.2866 14.1507 4.40662 13.2647 3.66674L15.1307 1.80077C15.3864 1.53603 15.379 1.11415 15.1143 0.858466C14.856 0.609027 14.4466 0.609027 14.1883 0.858466L12.1591 2.89037C10.9011 2.14321 9.46302 1.75376 7.99997 1.76413C3.87416 1.76413 1.52303 4.58843 0.488756 6.2718C-0.162939 7.32588 -0.162939 8.65776 0.488756 9.71187C1.09038 10.697 1.84925 11.577 2.73527 12.3169L0.869303 14.1829C0.604557 14.4385 0.597216 14.8605 0.852903 15.1252C1.10859 15.3899 1.53049 15.3973 1.79521 15.1416C1.80077 15.1362 1.80624 15.1307 1.81161 15.1252L3.84551 13.0913C5.10189 13.8383 6.53829 14.2284 7.99997 14.2195C12.1258 14.2195 14.4769 11.3952 15.5112 9.71184C16.1629 8.65776 16.1629 7.32588 15.5112 6.27177ZM4.00148 7.99182C3.9977 5.78717 5.78182 3.99689 7.98647 3.99311C8.82063 3.99168 9.6343 4.25161 10.3131 4.73637L9.3455 5.70401C8.93928 5.45904 8.47435 5.32846 8 5.32615C6.5278 5.32615 5.33433 6.51961 5.33433 7.99182C5.33664 8.46617 5.46722 8.93109 5.71219 9.33732L4.74455 10.305C4.26136 9.63043 4.00152 8.82154 4.00148 7.99182ZM8 11.9903C7.17028 11.9903 6.36139 11.7305 5.68686 11.2473L6.6545 10.2796C7.06072 10.5246 7.52564 10.6552 8 10.6575C9.4722 10.6575 10.6657 9.46402 10.6657 7.99182C10.6634 7.51746 10.5328 7.05254 10.2878 6.64632L11.2554 5.67868C12.5366 7.47282 12.1208 9.9659 10.3267 11.2471C9.64783 11.7318 8.83416 11.9918 8 11.9903Z" fill="#707070"/>
</svg>
