<svg width="20" height="20" viewBox="0 0 20 20" fill="none" xmlns="http://www.w3.org/2000/svg">
<path d="M15.1156 3.75782C15.1026 3.75677 15.0917 3.75 15.0781 3.75H9.47919C8.61773 3.75 7.91669 4.45105 7.91669 5.3125V5.8333C7.91669 6.12083 8.14996 6.3542 8.43749 6.3542C8.72502 6.3542 8.95829 6.12083 8.95829 5.8333V5.3125C8.95829 5.02554 9.19213 4.7917 9.47919 4.7917H11.9057L11.7468 4.84482C11.325 4.99063 11.0417 5.38803 11.0417 5.8333V13.6458H9.47919C9.19213 13.6458 8.95829 13.412 8.95829 13.125V12.0833C8.95829 11.7959 8.72502 11.5625 8.43749 11.5625C8.14996 11.5625 7.91669 11.7959 7.91669 12.0833V13.125C7.91669 13.9865 8.61773 14.6875 9.47919 14.6875H11.0417V15.2083C11.0417 15.7828 11.5088 16.25 12.0833 16.25C12.1948 16.25 12.3005 16.2339 12.4151 16.1984L15.5443 15.1552C15.9667 15.0094 16.25 14.612 16.25 14.1667V4.7917C16.25 4.1844 15.7265 3.70832 15.1156 3.75782Z" fill="#292B5C"/>
<path d="M9.32652 8.59002L7.24321 6.50672C7.09425 6.35776 6.87033 6.31293 6.67549 6.39371C6.48123 6.47439 6.3542 6.66455 6.3542 6.87493V8.43743H4.2708C3.98336 8.43743 3.75 8.6708 3.75 8.95824C3.75 9.24577 3.98336 9.47913 4.2708 9.47913H6.3542V11.0416C6.3542 11.252 6.48123 11.4421 6.67549 11.5229C6.87033 11.6035 7.09425 11.5588 7.24321 11.4098L9.32652 9.32645C9.53022 9.12284 9.53022 8.79373 9.32652 8.59002Z" fill="#292B5C"/>
</svg>
