<svg width="36" height="37" viewBox="0 0 36 37" fill="none" xmlns="http://www.w3.org/2000/svg">
<path d="M18 3.84613C18.1926 3.84613 18.3852 3.85333 18.576 3.86953C17.2845 4.78345 16.2312 5.99394 15.5045 7.39934C14.7779 8.80473 14.3991 10.364 14.4 11.9461C14.4 14.3167 15.2334 16.4929 16.623 18.1975L15.3 19.5187V22.5661C15.3 22.8526 15.1862 23.1273 14.9837 23.3298C14.7811 23.5323 14.5064 23.6461 14.22 23.6461H10.8V26.1661C10.8 26.4526 10.6862 26.7273 10.4837 26.9298C10.2811 27.1323 10.0064 27.2461 9.71998 27.2461H4.67998C4.39354 27.2461 4.11884 27.1323 3.9163 26.9298C3.71376 26.7273 3.59998 26.4526 3.59998 26.1661V21.0199C3.60023 20.7336 3.71418 20.4591 3.91678 20.2567L11.0916 13.0819C10.775 12.0079 10.7132 10.8749 10.9113 9.77284C11.1093 8.67079 11.5616 7.63012 12.2322 6.73351C12.9029 5.83689 13.7735 5.10905 14.7747 4.60782C15.7759 4.10659 16.8803 3.84579 18 3.84613Z" fill="#DF5532"/>
<path d="M16.2 11.9459C16.2001 10.5466 16.5627 9.17112 17.2525 7.9536C17.9423 6.73608 18.9358 5.71804 20.1361 4.9987C21.3365 4.27936 22.7027 3.88325 24.1016 3.84899C25.5005 3.81472 26.8845 4.14346 28.1186 4.80317C29.3527 5.46289 30.3948 6.43106 31.1434 7.61335C31.892 8.79563 32.3216 10.1517 32.3902 11.5494C32.4588 12.947 32.1642 14.3387 31.535 15.5886C30.9058 16.8385 29.9635 17.9041 28.8 18.6815V22.3715L30.2094 23.7827C30.4116 23.9852 30.5252 24.2597 30.5252 24.5459C30.5252 24.8321 30.4116 25.1066 30.2094 25.3091L28.2726 27.2459L30.195 29.1665C30.3024 29.274 30.3859 29.4029 30.4401 29.5449C30.4942 29.6869 30.5179 29.8387 30.5094 29.9904C30.5009 30.1421 30.4605 30.2903 30.3908 30.4253C30.3211 30.5603 30.2237 30.6791 30.105 30.7739L25.875 34.1579C25.6834 34.3113 25.4453 34.3949 25.2 34.3949C24.9546 34.3949 24.7165 34.3113 24.525 34.1579L20.205 30.7019C20.0787 30.6008 19.9767 30.4726 19.9066 30.3268C19.8365 30.181 19.8001 30.0213 19.8 29.8595V18.6815C18.6918 17.9419 17.7834 16.9401 17.1554 15.7651C16.5274 14.5901 16.1992 13.2782 16.2 11.9459ZM25.65 10.1459C25.65 9.7879 25.5077 9.44452 25.2545 9.19135C25.0014 8.93817 24.658 8.79594 24.3 8.79594C23.9419 8.79594 23.5985 8.93817 23.3454 9.19135C23.0922 9.44452 22.95 9.7879 22.95 10.1459C22.95 10.504 23.0922 10.8474 23.3454 11.1005C23.5985 11.3537 23.9419 11.4959 24.3 11.4959C24.658 11.4959 25.0014 11.3537 25.2545 11.1005C25.5077 10.8474 25.65 10.504 25.65 10.1459Z" fill="#DF5532"/>
</svg>