<svg width="25" height="25" viewBox="0 0 25 25" fill="none" xmlns="http://www.w3.org/2000/svg">
<path fill-rule="evenodd" clip-rule="evenodd" d="M17.3819 9.80256C17.3819 13.5832 14.3492 16.6051 10.661 16.6051C6.97272 16.6051 3.94006 13.5832 3.94006 9.80256C3.94006 6.0219 6.97272 3 10.661 3C14.3492 3 17.3819 6.0219 17.3819 9.80256ZM15.8722 18.079C14.3661 19.0453 12.5783 19.6051 10.661 19.6051C5.29226 19.6051 0.940063 15.2164 0.940063 9.80256C0.940063 4.38876 5.29226 0 10.661 0C16.0297 0 20.3819 4.38876 20.3819 9.80256C20.3819 12.1942 19.5325 14.3858 18.1213 16.0874L24.3021 22.3453L22.194 24.4797L15.8722 18.079Z" fill="black"/>
</svg>
