<svg width="25" height="25" viewBox="0 0 25 25" fill="none" xmlns="http://www.w3.org/2000/svg">
<g clip-path="url(#clip0_134_4884)">
<path d="M12.5 15.2461C14.1569 15.2461 15.5 13.9029 15.5 12.2461C15.5 10.5892 14.1569 9.24609 12.5 9.24609C10.8431 9.24609 9.5 10.5892 9.5 12.2461C9.5 13.9029 10.8431 15.2461 12.5 15.2461Z" stroke="black" stroke-width="2" stroke-linecap="round" stroke-linejoin="round"/>
<path d="M19.9 15.2461C19.7669 15.5477 19.7272 15.8823 19.786 16.2067C19.8448 16.5311 19.9995 16.8304 20.23 17.0661L20.29 17.1261C20.476 17.3118 20.6235 17.5324 20.7241 17.7752C20.8248 18.018 20.8766 18.2783 20.8766 18.5411C20.8766 18.8039 20.8248 19.0642 20.7241 19.307C20.6235 19.5498 20.476 19.7703 20.29 19.9561C20.1043 20.142 19.8837 20.2896 19.6409 20.3902C19.3981 20.4909 19.1378 20.5427 18.875 20.5427C18.6122 20.5427 18.3519 20.4909 18.1091 20.3902C17.8663 20.2896 17.6457 20.142 17.46 19.9561L17.4 19.8961C17.1643 19.6656 16.865 19.5109 16.5406 19.4521C16.2162 19.3933 15.8816 19.433 15.58 19.5661C15.2842 19.6929 15.032 19.9033 14.8543 20.1716C14.6766 20.4399 14.5813 20.7543 14.58 21.0761V21.2461C14.58 21.7765 14.3693 22.2852 13.9942 22.6603C13.6191 23.0354 13.1104 23.2461 12.58 23.2461C12.0496 23.2461 11.5409 23.0354 11.1658 22.6603C10.7907 22.2852 10.58 21.7765 10.58 21.2461V21.1561C10.5723 20.8251 10.4651 20.5041 10.2725 20.2348C10.0799 19.9655 9.81074 19.7604 9.5 19.6461C9.19838 19.513 8.86381 19.4733 8.53941 19.5321C8.21502 19.5909 7.91568 19.7456 7.68 19.9761L7.62 20.0361C7.43425 20.222 7.21368 20.3696 6.97088 20.4702C6.72808 20.5709 6.46783 20.6227 6.205 20.6227C5.94217 20.6227 5.68192 20.5709 5.43912 20.4702C5.19632 20.3696 4.97575 20.222 4.79 20.0361C4.60405 19.8503 4.45653 19.6298 4.35588 19.387C4.25523 19.1442 4.20343 18.8839 4.20343 18.6211C4.20343 18.3583 4.25523 18.098 4.35588 17.8552C4.45653 17.6124 4.60405 17.3918 4.79 17.2061L4.85 17.1461C5.08054 16.9104 5.23519 16.6111 5.294 16.2867C5.35282 15.9623 5.31312 15.6277 5.18 15.3261C5.05324 15.0303 4.84276 14.7781 4.57447 14.6004C4.30618 14.4227 3.99179 14.3274 3.67 14.3261H3.5C2.96957 14.3261 2.46086 14.1154 2.08579 13.7403C1.71071 13.3652 1.5 12.8565 1.5 12.3261C1.5 11.7957 1.71071 11.287 2.08579 10.9119C2.46086 10.5368 2.96957 10.3261 3.5 10.3261H3.59C3.92099 10.3184 4.242 10.2112 4.5113 10.0186C4.78059 9.826 4.98572 9.55683 5.1 9.24609C5.23312 8.94448 5.27282 8.6099 5.214 8.28551C5.15519 7.96111 5.00054 7.66177 4.77 7.42609L4.71 7.36609C4.52405 7.18035 4.37653 6.95977 4.27588 6.71697C4.17523 6.47418 4.12343 6.21392 4.12343 5.95109C4.12343 5.68826 4.17523 5.42801 4.27588 5.18521C4.37653 4.94242 4.52405 4.72184 4.71 4.53609C4.89575 4.35014 5.11632 4.20262 5.35912 4.10197C5.60192 4.00133 5.86217 3.94952 6.125 3.94952C6.38783 3.94952 6.64808 4.00133 6.89088 4.10197C7.13368 4.20262 7.35425 4.35014 7.54 4.53609L7.6 4.59609C7.83568 4.82663 8.13502 4.98128 8.45941 5.0401C8.78381 5.09892 9.11838 5.05921 9.42 4.92609H9.5C9.79577 4.79933 10.048 4.58885 10.2257 4.32056C10.4034 4.05227 10.4987 3.73788 10.5 3.41609V3.24609C10.5 2.71566 10.7107 2.20695 11.0858 1.83188C11.4609 1.45681 11.9696 1.24609 12.5 1.24609C13.0304 1.24609 13.5391 1.45681 13.9142 1.83188C14.2893 2.20695 14.5 2.71566 14.5 3.24609V3.33609C14.5013 3.65788 14.5966 3.97227 14.7743 4.24056C14.952 4.50885 15.2042 4.71933 15.5 4.84609C15.8016 4.97921 16.1362 5.01892 16.4606 4.9601C16.785 4.90128 17.0843 4.74663 17.32 4.51609L17.38 4.45609C17.5657 4.27014 17.7863 4.12262 18.0291 4.02197C18.2719 3.92133 18.5322 3.86952 18.795 3.86952C19.0578 3.86952 19.3181 3.92133 19.5609 4.02197C19.8037 4.12262 20.0243 4.27014 20.21 4.45609C20.396 4.64184 20.5435 4.86242 20.6441 5.10521C20.7448 5.34801 20.7966 5.60826 20.7966 5.87109C20.7966 6.13392 20.7448 6.39418 20.6441 6.63697C20.5435 6.87977 20.396 7.10035 20.21 7.28609L20.15 7.34609C19.9195 7.58177 19.7648 7.88111 19.706 8.2055C19.6472 8.5299 19.6869 8.86448 19.82 9.16609V9.24609C19.9468 9.54186 20.1572 9.79411 20.4255 9.97179C20.6938 10.1495 21.0082 10.2448 21.33 10.2461H21.5C22.0304 10.2461 22.5391 10.4568 22.9142 10.8319C23.2893 11.207 23.5 11.7157 23.5 12.2461C23.5 12.7765 23.2893 13.2852 22.9142 13.6603C22.5391 14.0354 22.0304 14.2461 21.5 14.2461H21.41C21.0882 14.2474 20.7738 14.3427 20.5055 14.5204C20.2372 14.6981 20.0268 14.9503 19.9 15.2461Z" stroke="black" stroke-width="2" stroke-linecap="round" stroke-linejoin="round"/>
</g>
<defs>
<clipPath id="clip0_134_4884">
<rect width="24" height="24" fill="white" transform="translate(0.5 0.246094)"/>
</clipPath>
</defs>
</svg>
